name analog
datacolumns 19
datarows 57
range 0.0 0.028
endheader
time	ground_force_vx	ground_force_vy	ground_force_vz	ground_force_px	ground_force_py	ground_force_pz	l_ground_force_vx	l_ground_force_vy	l_ground_force_vz	l_ground_force_px	l_ground_force_py	l_ground_force_pz	ground_torque_x	ground_torque_y	ground_torque_z	l_ground_torque_x	l_ground_torque_y	l_ground_torque_z
0.0	-0.0	-0.0	-0.0	-0.0	-0.0	-0.0	-3.441009044647217	-4.079818248748779	-795.2937622070312	-0.0	-0.0	-0.0	-0.0	-0.0	-0.0	240038.578125	4398.12890625	-2174.675048828125
0.0005	-0.0	-0.0	-0.0	-0.0	-0.0	-0.0	-3.7444522380828857	-4.3092451095581055	-795.0914306640625	-0.0	-0.0	-0.0	-0.0	-0.0	-0.0	240142.546875	4520.1376953125	-2306.069091796875
0.001	-0.0	-0.0	-0.0	-0.0	-0.0	-0.0	-3.585404872894287	-4.292186737060547	-795.1588745117188	-0.0	-0.0	-0.0	-0.0	-0.0	-0.0	240193.875	4448.23291015625	-2299.7197265625
0.0015	-0.0	-0.0	-0.0	-0.0	-0.0	-0.0	-4.293826103210449	-4.663830757141113	-795.5848388671875	-0.0	-0.0	-0.0	-0.0	-0.0	-0.0	240109.296875	4281.46728515625	-2347.697509765625
0.002	-0.0	-0.0	-0.0	-0.0	-0.0	-0.0	-4.43460750579834	-4.715635776519775	-795.5040893554688	-0.0	-0.0	-0.0	-0.0	-0.0	-0.0	240297.265625	4691.5732421875	-2330.07470703125
0.0025	-0.0	-0.0	-0.0	-0.0	-0.0	-0.0	-4.631149768829346	-4.574618339538574	-796.2745361328125	-0.0	-0.0	-0.0	-0.0	-0.0	-0.0	239893.34375	4856.49267578125	-2442.989013671875
0.003	-0.0	-0.0	-0.0	-0.0	-0.0	-0.0	-4.915285110473633	-4.575298309326172	-796.3436279296875	-0.0	-0.0	-0.0	-0.0	-0.0	-0.0	239721.953125	5050.01904296875	-2567.867431640625
0.0035	-0.0	-0.0	-0.0	-0.0	-0.0	-0.0	-5.606762886047363	-4.415683746337891	-794.2491455078125	-0.0	-0.0	-0.0	-0.0	-0.0	-0.0	239646.59375	5173.8525390625	-2751.972412109375
0.004	-0.0	-0.0	-0.0	-0.0	-0.0	-0.0	-6.174657344818115	-4.557356357574463	-794.738525390625	-0.0	-0.0	-0.0	-0.0	-0.0	-0.0	239601.25	5561.4501953125	-2977.928955078125
0.0045000000000000005	-0.0	-0.0	-0.0	-0.0	-0.0	-0.0	-6.972648620605469	-4.045076370239258	-794.7384033203125	-0.0	-0.0	-0.0	-0.0	-0.0	-0.0	239335.21875	5680.0283203125	-3002.054443359375
0.005	-0.0	-0.0	-0.0	-0.0	-0.0	-0.0	-6.9016618728637695	-3.850843906402588	-793.6912231445312	-0.0	-0.0	-0.0	-0.0	-0.0	-0.0	239284.09375	5648.84619140625	-3037.563720703125
0.0055	-0.0	-0.0	-0.0	-0.0	-0.0	-0.0	-7.114437103271484	-3.7803354263305664	-794.1102294921875	-0.0	-0.0	-0.0	-0.0	-0.0	-0.0	238871.078125	5695.408203125	-3102.927001953125
0.006	-0.0	-0.0	-0.0	-0.0	-0.0	-0.0	-7.061043739318848	-3.4619600772857666	-794.3199462890625	-0.0	-0.0	-0.0	-0.0	-0.0	-0.0	239091.59375	5686.98095703125	-3043.470947265625
0.006500000000000001	-0.0	-0.0	-0.0	-0.0	-0.0	-0.0	-7.097468852996826	-3.268505573272705	-792.9917602539062	-0.0	-0.0	-0.0	-0.0	-0.0	-0.0	239198.234375	5498.04443359375	-2984.10693359375
0.007	-0.0	-0.0	-0.0	-0.0	-0.0	-0.0	-6.581864356994629	-3.0732786655426025	-793.2045288085938	-0.0	-0.0	-0.0	-0.0	-0.0	-0.0	238911.109375	5445.22265625	-2912.802978515625
0.0075	-0.0	-0.0	-0.0	-0.0	-0.0	-0.0	-6.102917671203613	-3.020984172821045	-791.9509887695312	-0.0	-0.0	-0.0	-0.0	-0.0	-0.0	238906.671875	5355.65185546875	-2627.3447265625
0.008	-0.0	-0.0	-0.0	-0.0	-0.0	-0.0	-5.625157356262207	-2.5794382095336914	-790.4120483398438	-0.0	-0.0	-0.0	-0.0	-0.0	-0.0	238590.8125	5277.34423828125	-2526.09912109375
0.0085	-0.0	-0.0	-0.0	-0.0	-0.0	-0.0	-4.843869686126709	-2.3145477771759038	-790.479248046875	-0.0	-0.0	-0.0	-0.0	-0.0	-0.0	238801.40625	5214.6318359375	-2311.284423828125
0.009000000000000001	-0.0	-0.0	-0.0	-0.0	-0.0	-0.0	-4.683332443237305	-1.6613390445709229	-789.0045776367188	-0.0	-0.0	-0.0	-0.0	-0.0	-0.0	238527.578125	5070.66357421875	-2139.5634765625
0.0095	-0.0	-0.0	-0.0	-0.0	-0.0	-0.0	-4.079067230224609	-1.2181906700134275	-789.5042114257812	-0.0	-0.0	-0.0	-0.0	-0.0	-0.0	238395.265625	5314.76220703125	-2074.087158203125
0.01	-0.0	-0.0	-0.0	-0.0	-0.0	-0.0	-3.75915789604187	-0.5648971199989319	-787.2713012695312	-0.0	-0.0	-0.0	-0.0	-0.0	-0.0	238200.625	5356.056640625	-1913.0596923828125
0.0105	-0.0	-0.0	-0.0	-0.0	-0.0	-0.0	-3.903274536132813	0.0144726037979125	-787.2717895507812	-0.0	-0.0	-0.0	-0.0	-0.0	-0.0	238102.609375	5417.15576171875	-1925.404052734375
0.011	-0.0	-0.0	-0.0	-0.0	-0.0	-0.0	-3.635018110275269	1.2365036010742188	-786.1598510742188	-0.0	-0.0	-0.0	-0.0	-0.0	-0.0	237968.28125	5664.37939453125	-1906.986572265625
0.0115	-0.0	-0.0	-0.0	-0.0	-0.0	-0.0	-3.76087498664856	1.8036034107208248	-785.9493408203125	-0.0	-0.0	-0.0	-0.0	-0.0	-0.0	237975.046875	5773.6865234375	-1889.004150390625
0.012	-0.0	-0.0	-0.0	-0.0	-0.0	-0.0	-4.153163909912109	2.473007202148437	-784.5338134765625	-0.0	-0.0	-0.0	-0.0	-0.0	-0.0	237460.90625	6065.4130859375	-1947.6181640625
0.0125	-0.0	-0.0	-0.0	-0.0	-0.0	-0.0	-4.771585941314697	2.7166342735290527	-781.75048828125	-0.0	-0.0	-0.0	-0.0	-0.0	-0.0	237091.25	6250.8369140625	-2086.352783203125
0.013000000000000001	-0.0	-0.0	-0.0	-0.0	-0.0	-0.0	-5.094257354736328	3.1795806884765625	-779.2432250976562	-0.0	-0.0	-0.0	-0.0	-0.0	-0.0	236483.8125	6396.25244140625	-2102.65185546875
0.0135	-0.0	-0.0	-0.0	-0.0	-0.0	-0.0	-5.357529163360596	2.9493448734283447	-778.4708251953125	-0.0	-0.0	-0.0	-0.0	-0.0	-0.0	235732.09375	6649.4609375	-2091.208251953125
0.014	-0.0	-0.0	-0.0	-0.0	-0.0	-0.0	-5.48421573638916	2.8988325595855717	-775.9520874023438	-0.0	-0.0	-0.0	-0.0	-0.0	-0.0	234962.296875	6569.11865234375	-2115.6650390625
0.0145	-0.0	-0.0	-0.0	-0.0	-0.0	-0.0	-5.07225513458252	2.936930656433105	-774.5553588867188	-0.0	-0.0	-0.0	-0.0	-0.0	-0.0	234459.375	6770.263671875	-2048.564453125
0.015	-0.0	-0.0	-0.0	-0.0	-0.0	-0.0	-5.145225524902344	2.157855987548828	-773.1724243164062	-0.0	-0.0	-0.0	-0.0	-0.0	-0.0	234251.671875	6404.35888671875	-2007.45751953125
0.0155	-0.0	-0.0	-0.0	-0.0	-0.0	-0.0	-5.129698753356934	1.5934664011001587	-771.70068359375	-0.0	-0.0	-0.0	-0.0	-0.0	-0.0	233834.09375	6511.02880859375	-1918.552734375
0.016	-0.0	-0.0	-0.0	-0.0	-0.0	-0.0	-4.967803955078125	1.3632203340530396	-771.27587890625	-0.0	-0.0	-0.0	-0.0	-0.0	-0.0	233553.875	6459.2587890625	-1918.4539794921875
0.0165	-0.0	-0.0	-0.0	-0.0	-0.0	-0.0	-5.002480983734131	0.6913208961486816	-771.4124145507812	-0.0	-0.0	-0.0	-0.0	-0.0	-0.0	233324.0625	6356.34765625	-1861.9710693359373
0.017	-0.0	-0.0	-0.0	-0.0	-0.0	-0.0	-4.963579177856445	0.4071210026741028	-770.9866333007812	-0.0	-0.0	-0.0	-0.0	-0.0	-0.0	233210.5	6517.5419921875	-1948.2574462890625
0.0175	-0.0	-0.0	-0.0	-0.0	-0.0	-0.0	-4.879093170166016	0.1421798765659332	-771.5484008789062	-0.0	-0.0	-0.0	-0.0	-0.0	-0.0	233314.109375	6431.54443359375	-1925.0823974609373
0.018000000000000002	-0.0	-0.0	-0.0	-0.0	-0.0	-0.0	-4.0265631675720215	-0.1571740359067917	-772.5186157226562	-0.0	-0.0	-0.0	-0.0	-0.0	-0.0	233704.953125	6398.1591796875	-1896.378662109375
0.0185	-0.0	-0.0	-0.0	-0.0	-0.0	-0.0	-4.50462007522583	-0.937149703502655	-773.3522338867188	-0.0	-0.0	-0.0	-0.0	-0.0	-0.0	233983.546875	6401.3671875	-1804.8057861328125
0.019	-0.0	-0.0	-0.0	-0.0	-0.0	-0.0	-4.061010837554932	-0.7164987325668335	-772.9441528320312	-0.0	-0.0	-0.0	-0.0	-0.0	-0.0	233868.265625	6364.1787109375	-1997.1435546875
0.0195	-0.0	-0.0	-0.0	-0.0	-0.0	-0.0	-4.041175365447998	-0.7015499472618103	-773.7977294921875	-0.0	-0.0	-0.0	-0.0	-0.0	-0.0	233915.640625	6278.2919921875	-1878.4945068359373
0.02	-0.0	-0.0	-0.0	-0.0	-0.0	-0.0	-4.218446731567383	-0.868678629398346	-775.0385131835938	-0.0	-0.0	-0.0	-0.0	-0.0	-0.0	234025.03125	6242.7666015625	-2073.07080078125
0.0205	-0.0	-0.0	-0.0	-0.0	-0.0	-0.0	-4.278008460998535	-0.4073493182659149	-774.61083984375	-0.0	-0.0	-0.0	-0.0	-0.0	-0.0	234376.578125	6229.75244140625	-2056.615966796875
0.021	-0.0	-0.0	-0.0	-0.0	-0.0	-0.0	-4.464353084564209	-0.0254125595092773	-774.012451171875	-0.0	-0.0	-0.0	-0.0	-0.0	-0.0	234461.375	6326.14404296875	-2094.11669921875
0.021500000000000002	-0.0	-0.0	-0.0	-0.0	-0.0	-0.0	-4.361123085021973	0.1851540207862854	-774.9814453125	-0.0	-0.0	-0.0	-0.0	-0.0	-0.0	234820.890625	6296.4658203125	-2209.6748046875
0.022	-0.0	-0.0	-0.0	-0.0	-0.0	-0.0	-4.550228118896484	0.7148667573928833	-775.363525390625	-0.0	-0.0	-0.0	-0.0	-0.0	-0.0	235309.390625	6272.92919921875	-2150.33740234375
0.0225	-0.0	-0.0	-0.0	-0.0	-0.0	-0.0	-4.558520317077637	1.0939801931381226	-776.0052490234375	-0.0	-0.0	-0.0	-0.0	-0.0	-0.0	235492.921875	6276.564453125	-2243.94189453125
0.023	-0.0	-0.0	-0.0	-0.0	-0.0	-0.0	-4.893080711364746	1.46738600730896	-776.7276000976562	-0.0	-0.0	-0.0	-0.0	-0.0	-0.0	235792.296875	6374.66650390625	-2200.8310546875
0.0235	-0.0	-0.0	-0.0	-0.0	-0.0	-0.0	-4.933604717254639	1.9569029808044436	-776.3786010742188	-0.0	-0.0	-0.0	-0.0	-0.0	-0.0	236257.21875	6336.6572265625	-2382.92724609375
0.024	-0.0	-0.0	-0.0	-0.0	-0.0	-0.0	-5.288479328155518	1.7736129760742188	-778.1787719726562	-0.0	-0.0	-0.0	-0.0	-0.0	-0.0	236730.765625	6411.47119140625	-2399.28466796875
0.0245	-0.0	-0.0	-0.0	-0.0	-0.0	-0.0	-5.131545066833496	2.1604409217834477	-778.3128051757812	-0.0	-0.0	-0.0	-0.0	-0.0	-0.0	237100.53125	6545.572265625	-2497.143798828125
0.025	-0.0	-0.0	-0.0	-0.0	-0.0	-0.0	-5.213411331176758	2.6766676902771	-780.488037109375	-0.0	-0.0	-0.0	-0.0	-0.0	-0.0	237540.6875	6237.27734375	-2453.742919921875
0.025500000000000002	-0.0	-0.0	-0.0	-0.0	-0.0	-0.0	-5.111156940460205	2.9555823802948	-781.5885009765625	-0.0	-0.0	-0.0	-0.0	-0.0	-0.0	237942.234375	6149.17578125	-2350.85595703125
0.026000000000000002	-0.0	-0.0	-0.0	-0.0	-0.0	-0.0	-5.016366958618164	3.0573770999908447	-782.7979736328125	-0.0	-0.0	-0.0	-0.0	-0.0	-0.0	238496.171875	6204.046875	-2211.7392578125
0.0265	-0.0	-0.0	-0.0	-0.0	-0.0	-0.0	-4.735665321350098	3.7301435470581055	-783.6300048828125	-0.0	-0.0	-0.0	-0.0	-0.0	-0.0	238840.171875	5865.85888671875	-2213.364013671875
0.027	-0.0	-0.0	-0.0	-0.0	-0.0	-0.0	-4.511063098907471	4.104173183441162	-783.6298828125	-0.0	-0.0	-0.0	-0.0	-0.0	-0.0	239221.171875	5758.17431640625	-2211.201171875
0.0275	-0.0	-0.0	-0.0	-0.0	-0.0	-0.0	-4.47724723815918	3.865391731262207	-783.5783081054688	-0.0	-0.0	-0.0	-0.0	-0.0	-0.0	239310.125	5411.0712890625	-2113.5517578125
0.028	-0.0	-0.0	-0.0	-0.0	-0.0	-0.0	-3.712890863418579	4.143187522888184	-784.3279418945312	-0.0	-0.0	-0.0	-0.0	-0.0	-0.0	239534.09375	4885.60302734375	-1984.7445068359373
